<svg xmlns="http://www.w3.org/2000/svg" xmlns:xlink="http://www.w3.org/1999/xlink" width="771.622" height="573.831" viewBox="0 0 771.622 573.831">
  <defs>
    <linearGradient id="linear-gradient" x1="0.5" y1="1" x2="0.5" gradientUnits="objectBoundingBox">
      <stop offset="0.21" stop-color="#fff" stop-opacity="0"/>
      <stop offset="1" stop-color="#fff" stop-opacity="0.2"/>
    </linearGradient>
  </defs>
  <g id="Group_1" data-name="Group 1" transform="translate(-635.224 -327.869)">
    <g id="Слой_2" data-name="Слой 2" transform="translate(635.224 327.869)">
      <g id="Слой_1" data-name="Слой 1" transform="translate(0 0)">
        <g id="Mobile" transform="translate(0 110.083)">
          <path id="Path_1" data-name="Path 1" d="M203.384,517.35,11,406.236c-16.3-9.4-14.26-25.834,4.63-36.7L480.29,101.258c18.828-10.8,47.285-12.053,63.582-2.639L736.254,209.733c16.3,9.414,14.244,25.85-4.63,36.714L266.981,514.7C248.138,525.576,219.68,526.749,203.384,517.35Z" transform="translate(-0.003 -59.947)" fill="#d6d8e5" opacity="0.4"/>
          <path id="Path_2" data-name="Path 2" d="M219.172,507.868,26.79,396.754c-16.3-9.414-14.244-25.85,4.63-36.714L496.063,91.776c18.828-10.8,47.285-12.037,63.582-2.639L752.027,200.251c16.3,9.4,14.26,25.834-4.63,36.7L282.754,505.229C263.926,516.093,235.469,517.282,219.172,507.868Z" transform="translate(8.576 -65.095)" fill="#b1b4c4"/>
          <path id="Path_3" data-name="Path 3" d="M15.79,282.027V264.31l20.772,7.84Z" transform="translate(8.573 33.505)" fill="#b1b4c4"/>
          <path id="Path_4" data-name="Path 4" d="M505.818,174.828V157.79L489.29,168.439Z" transform="translate(265.804 -24.362)" fill="#b1b4c4"/>
          <path id="Path_5" data-name="Path 5" d="M219.172,498.16,26.79,387.046c-16.3-9.4-14.244-25.834,4.63-36.7L496.063,82.068c18.828-10.8,47.285-12.053,63.582-2.639L752.027,190.543c16.3,9.414,14.26,25.85-4.63,36.714L282.754,495.521C263.926,506.386,235.469,507.558,219.172,498.16Z" transform="translate(8.576 -70.372)" fill="#616e84"/>
          <ellipse id="Ellipse_1" data-name="Ellipse 1" cx="2.068" cy="3.565" rx="2.068" ry="3.565" transform="translate(53.232 334.318) rotate(-30)" fill="#757b89"/>
          <ellipse id="Ellipse_2" data-name="Ellipse 2" cx="2.068" cy="3.565" rx="2.068" ry="3.565" transform="translate(62.486 339.668) rotate(-30)" fill="#757b89"/>
          <ellipse id="Ellipse_3" data-name="Ellipse 3" cx="2.068" cy="3.565" rx="2.068" ry="3.565" transform="translate(71.762 345.016) rotate(-30)" fill="#757b89"/>
          <ellipse id="Ellipse_4" data-name="Ellipse 4" cx="2.068" cy="3.565" rx="2.068" ry="3.565" transform="translate(81.016 350.365) rotate(-30)" fill="#757b89"/>
          <ellipse id="Ellipse_5" data-name="Ellipse 5" cx="2.075" cy="3.577" rx="2.075" ry="3.577" transform="translate(161.172 398.273) rotate(-29.887)" fill="#757b89"/>
          <ellipse id="Ellipse_6" data-name="Ellipse 6" cx="2.068" cy="3.565" rx="2.068" ry="3.565" transform="translate(169.783 401.618) rotate(-30)" fill="#757b89"/>
          <ellipse id="Ellipse_7" data-name="Ellipse 7" cx="2.068" cy="3.565" rx="2.068" ry="3.565" transform="translate(179.044 406.966) rotate(-30)" fill="#757b89"/>
          <ellipse id="Ellipse_8" data-name="Ellipse 8" cx="2.068" cy="3.565" rx="2.068" ry="3.565" transform="translate(188.298 412.315) rotate(-30)" fill="#757b89"/>
          <path id="Path_6" data-name="Path 6" d="M98.8,329.851,73.367,315.174A6.975,6.975,0,0,1,70.45,309.6h0c0-2.16,1.3-3.087,2.917-2.207L98.8,322.073a6.991,6.991,0,0,1,2.917,5.587h0C101.716,329.8,100.42,330.792,98.8,329.851Z" transform="translate(38.267 56.733)" fill="#757b89"/>
          <path id="Path_7" data-name="Path 7" d="M471.554,198.81,447.9,212.468c-1.543.864-2.716,0-2.716-2.053h0a6.482,6.482,0,0,1,2.716-5.17l23.658-13.658c1.543-.864,2.7,0,2.7,2.053h0A6.466,6.466,0,0,1,471.554,198.81Z" transform="translate(241.841 -6.183)" fill="#757b89"/>
          <path id="Path_8" data-name="Path 8" d="M448.074,212.386l-23.658,13.658c-1.543.864-2.716,0-2.716-2.053h0a6.513,6.513,0,0,1,2.716-5.185l23.658-13.689c1.543-.864,2.7,0,2.7,2.053h0A6.482,6.482,0,0,1,448.074,212.386Z" transform="translate(229.085 1.168)" fill="#757b89"/>
          <path id="Path_9" data-name="Path 9" d="M219.172,496.388,26.79,385.274c-16.3-9.414-14.244-25.85,4.63-36.714L496.063,80.3c18.828-10.8,47.285-12.037,63.582-2.639L752.027,188.771c16.3,9.4,14.26,25.834-4.63,36.7L282.754,493.749C263.926,504.613,235.469,505.8,219.172,496.388Z" transform="translate(8.576 -71.331)" fill="#20232d"/>
          <path id="Path_10" data-name="Path 10" d="M720.566,189.064,645.456,145.7l-.185.108c-8.874,5.124-23.257,5.124-32.131,0s-8.874-13.442,0-18.519l.185-.093L538.215,83.83c-11.4-6.59-29.908-6.59-41.313,0L44.281,345.1c-11.4,6.574-11.4,17.254,0,23.843L226.617,474.227c11.42,6.59,29.908,6.59,41.313,0L720.566,212.908C731.971,206.318,731.971,195.639,720.566,189.064Z" transform="translate(19.404 -67.226)" fill="#fff"/>
          <path id="Path_11" data-name="Path 11" d="M720.565,212.925,267.943,474.244c-10.309,5.957-26.436,6.513-37.856,1.7a28.525,28.525,0,0,1-3.441-1.7L44.295,368.964a19.262,19.262,0,0,1-6.4-5.556c-4.306-6.173-2.176-13.349,6.4-18.288L496.9,83.786c11.4-6.574,29.893-6.574,41.313,0l75.11,43.381-.185.108c-8.874,5.124-8.874,13.411,0,18.519s23.272,5.139,32.131,0l.17-.093,75.126,43.365C731.969,195.672,731.969,206.336,720.565,212.925Z" transform="translate(19.405 -67.244)" opacity="0.5" fill="url(#linear-gradient)"/>
          <ellipse id="Ellipse_9" data-name="Ellipse 9" cx="8.627" cy="4.985" rx="8.627" ry="4.985" transform="translate(635.044 67.161)" fill="#2b303f"/>
          <path id="Path_12" data-name="Path 12" d="M415.831,120.255a1.543,1.543,0,0,1,0-2.963,5.725,5.725,0,0,1,5.108,0,1.543,1.543,0,0,1,0,2.963,5.726,5.726,0,0,1-5.108,0Z" transform="translate(225.293 -46.69)" fill="#fff" opacity="0.1"/>
        </g>
        <path id="Path_13" data-name="Path 13" d="M414.319,276.2,253.342,183.23c-9.352-5.4-8.179-14.831,2.624-21.065l108.306-62.5c10.8-6.173,27.161-6.929,36.513-1.543l161.023,92.966c9.352,5.4,8.179,14.831-2.624,21.081l-108.29,62.517C440.014,280.918,423.671,281.6,414.319,276.2Z" transform="translate(134.194 51.346)" fill="#e9eaf2"/>
        <path id="Path_14" data-name="Path 14" d="M407.886,146.191l-57.965,8.966,9.306-20.047L268.36,149.169l25.4,14.661,41.112,23.735,42.44,24.507Z" transform="translate(145.782 73.4)" fill="#dadce5"/>
        <ellipse id="Ellipse_10" data-name="Ellipse 10" cx="28.751" cy="16.605" rx="28.751" ry="16.605" transform="translate(599.395 231.69)" fill="#dadce5"/>
        <path id="Path_15" data-name="Path 15" d="M307.819,337.673,146.842,244.738c-9.352-5.4-8.179-14.831,2.623-21.081L257.741,161.14c10.8-6.173,27.161-6.914,36.513-1.543l160.977,92.935c9.352,5.417,8.179,14.846-2.623,21.081L344.317,336.13C333.514,342.411,317.187,343.075,307.819,337.673Z" transform="translate(76.338 84.747)" fill="#e9eaf2"/>
        <path id="Path_16" data-name="Path 16" d="M344.423,335.134l-108.29,62.5a34.21,34.21,0,0,1-6.806,2.994,28.508,28.508,0,0,1-3.441-1.7L43.535,293.651a19.26,19.26,0,0,1-6.4-5.556,25.3,25.3,0,0,1,4.151-2.948L149.587,222.63c10.8-6.173,27.161-6.914,36.513-1.543l161.023,92.966C356.383,319.454,355.226,328.883,344.423,335.134Z" transform="translate(20.166 118.152)" fill="#e9eaf2"/>
        <path id="Path_17" data-name="Path 17" d="M194.886,269.161l-57.965,8.966,9.306-20.047L55.36,272.139l25.417,14.676,41.1,23.735,42.44,24.491Z" transform="translate(30.069 140.204)" fill="#dadce5"/>
        <ellipse id="Ellipse_11" data-name="Ellipse 11" cx="28.751" cy="16.605" rx="28.751" ry="16.605" transform="translate(270.682 421.479)" fill="#dadce5"/>
        <path id="Path_18" data-name="Path 18" d="M438.276,143.121l-3.256-1.883,5.448-3.148,3.256,1.883Z" transform="translate(236.321 75.019)" fill="#e9eaf2"/>
        <path id="Path_19" data-name="Path 19" d="M441.112,145.191l-3.272-1.883,7.624-4.4,3.272,1.883Z" transform="translate(237.853 75.464)" fill="#e9eaf2"/>
        <path id="Path_20" data-name="Path 20" d="M443.932,147.489l-3.272-1.883,10.9-6.3,3.272,1.883Z" transform="translate(239.385 75.681)" fill="#e9eaf2"/>
        <path id="Path_21" data-name="Path 21" d="M446.746,150l-3.256-1.883,15.247-8.812,3.272,1.883Z" transform="translate(240.923 75.681)" fill="#e9eaf2"/>
        <path id="Path_22" data-name="Path 22" d="M456.567,154.642l-5.077-2.932,10.155-5.88,5.093,2.932Z" transform="translate(245.269 79.224)" fill="#e9eaf2"/>
        <path id="Path_23" data-name="Path 23" d="M460.957,157.167l-5.077-2.932,10.17-5.864,5.077,2.932Z" transform="translate(247.654 80.603)" fill="#e9eaf2"/>
        <path id="Path_24" data-name="Path 24" d="M465.347,159.712l-5.077-2.932,10.17-5.88,5.077,2.948Z" transform="translate(250.038 81.978)" fill="#e9eaf2"/>
        <path id="Path_25" data-name="Path 25" d="M370.6,94.231,211.364,2.3C207.043-.185,203.123-.586,200.129.756h0a8.089,8.089,0,0,0-1.188.664L182.32,10.68l12.1,16.976V147.813c0,10.8,7.593,23.951,16.976,29.322l62.378,36,7.593,19.584L273.4,267.369l17.609-9.784,17.207-24.553,54.014,31.2,1.9,16.189L381.57,270.7c3.627-1.543,5.941-5.479,5.941-11.436V123.584C387.542,112.781,379.965,99.633,370.6,94.231Z" transform="translate(99.041 0)" fill="#edeef7"/>
        <path id="Path_26" data-name="Path 26" d="M354.939,100.576,195.706,8.644c-9.352-5.4-16.976-1.019-16.976,9.784V154.235c0,10.8,7.593,23.951,16.976,29.322l62.378,36,17.238,44.446,17.238-24.538,62.378,36.02c9.368,5.4,16.976,1.019,16.976-9.784V129.928C371.884,119.126,364.337,105.977,354.939,100.576Z" transform="translate(97.091 3.44)" fill="#f8f9ff"/>
        <path id="Path_27" data-name="Path 27" d="M287.725,115.368c-1.019-13.488-8.936-27.424-18.828-33.149-6.59-3.8-12.639-3.195-16.034,1.42-3.364-8.6-9.152-15.957-15.649-19.707-9.892-5.71-17.809-.911-18.828,11.4a28.861,28.861,0,0,0,.6,8.8,71.176,71.176,0,0,0,9.661,24.121l24.229,39.384,24.692-11.158c4.861-2.284,8.195-6.775,9.63-12.994A24.355,24.355,0,0,0,287.725,115.368Z" transform="translate(118.578 33.433)" fill="#ff5757"/>
        <ellipse id="Ellipse_12" data-name="Ellipse 12" cx="47.532" cy="27.439" rx="47.532" ry="27.439" transform="translate(328.754 299.408)" opacity="0.05"/>
      </g>
    </g>
  </g>
</svg>
