<svg xmlns="http://www.w3.org/2000/svg" xmlns:xlink="http://www.w3.org/1999/xlink" width="1920" height="758" viewBox="0 0 1920 758">
  <defs>
    <clipPath id="clip-path">
      <rect id="Rectangle_6" data-name="Rectangle 6" width="1920" height="758" fill="none"/>
    </clipPath>
  </defs>
  <g id="Mask_Group_1" data-name="Mask Group 1" clip-path="url(#clip-path)">
    <path id="Path_28" data-name="Path 28" d="M-150.815-60.326S-746.536,671.128-94.26,799.321c200.249,39.355,347.549,47.795,457.889,50.186C613.577,854.924,676.286,829.545,739,1059.478c90.489,331.794,1293.242,56.556,1383.731,37.7s0-1221.6,0-1221.6Z" transform="translate(169 -519)" fill="#010e67"/>
    <path id="Path_29" data-name="Path 29" d="M593.422-100.58C600.128,0,948.8-144.165,1046.032,80.464s63.7,462.668,338.62,445.9,405.673-301.74,358.735-496.195-459.316-573.306-720.824-442.552S586.717-201.16,593.422-100.58Z" transform="translate(41.395 330.874) rotate(-17)" fill="#00159c"/>
    <circle id="Ellipse_13" data-name="Ellipse 13" cx="97" cy="97" r="97" transform="translate(814 123)" fill="#00159c"/>
  </g>
</svg>
